<svg xmlns="http://www.w3.org/2000/svg" xmlns:xlink="http://www.w3.org/1999/xlink" zoomAndPan="magnify" preserveAspectRatio="xMidYMid meet" version="1.0" viewBox="40.42 208.26 306.94 134.03"><defs><g/></defs><g fill="#000000" fill-opacity="1"><g transform="translate(33.231711, 311.184027)"><g><path d="M 7.1875 0 L 7.1875 -61.390625 L 28.359375 -61.390625 L 28.359375 -52.53125 L 28.609375 -52.53125 C 28.765625 -52.851562 29.019531 -53.253906 29.375 -53.734375 C 29.738281 -54.210938 30.519531 -55.050781 31.71875 -56.25 C 32.914062 -57.445312 34.191406 -58.519531 35.546875 -59.46875 C 36.898438 -60.425781 38.65625 -61.285156 40.8125 -62.046875 C 42.96875 -62.804688 45.160156 -63.1875 47.390625 -63.1875 C 49.703125 -63.1875 51.972656 -62.863281 54.203125 -62.21875 C 56.441406 -61.582031 58.082031 -60.945312 59.125 -60.3125 L 60.796875 -59.359375 L 51.9375 -41.40625 C 49.300781 -43.632812 45.628906 -44.75 40.921875 -44.75 C 38.367188 -44.75 36.175781 -44.191406 34.34375 -43.078125 C 32.507812 -41.960938 31.210938 -40.609375 30.453125 -39.015625 C 29.691406 -37.421875 29.148438 -36.0625 28.828125 -34.9375 C 28.515625 -33.820312 28.359375 -32.945312 28.359375 -32.3125 L 28.359375 0 Z M 7.1875 0 "/></g></g></g><g fill="#000000" fill-opacity="1"><g transform="translate(86.843344, 311.184027)"><g><path d="M 9.203125 -95.609375 C 11.679688 -98.085938 14.632812 -99.328125 18.0625 -99.328125 C 21.5 -99.328125 24.453125 -98.085938 26.921875 -95.609375 C 29.398438 -93.140625 30.640625 -90.1875 30.640625 -86.75 C 30.640625 -83.320312 29.398438 -80.375 26.921875 -77.90625 C 24.453125 -75.4375 21.5 -74.203125 18.0625 -74.203125 C 14.632812 -74.203125 11.679688 -75.4375 9.203125 -77.90625 C 6.734375 -80.375 5.5 -83.320312 5.5 -86.75 C 5.5 -90.1875 6.734375 -93.140625 9.203125 -95.609375 Z M 7.1875 -61.390625 L 7.1875 0 L 28.359375 0 L 28.359375 -61.390625 Z M 7.1875 -61.390625 "/></g></g></g><g fill="#000000" fill-opacity="1"><g transform="translate(116.99989, 311.184027)"><g><path d="M 33.859375 -63.1875 C 37.367188 -63.1875 40.835938 -62.785156 44.265625 -61.984375 C 47.703125 -61.191406 50.257812 -60.394531 51.9375 -59.59375 L 54.453125 -58.40625 L 47.515625 -44.515625 C 42.722656 -47.066406 38.171875 -48.34375 33.859375 -48.34375 C 31.472656 -48.34375 29.78125 -48.082031 28.78125 -47.5625 C 27.78125 -47.050781 27.28125 -46.078125 27.28125 -44.640625 C 27.28125 -44.316406 27.320312 -43.992188 27.40625 -43.671875 C 27.488281 -43.359375 27.648438 -43.0625 27.890625 -42.78125 C 28.128906 -42.5 28.347656 -42.257812 28.546875 -42.0625 C 28.742188 -41.863281 29.082031 -41.644531 29.5625 -41.40625 C 30.039062 -41.164062 30.414062 -40.984375 30.6875 -40.859375 C 30.96875 -40.742188 31.425781 -40.566406 32.0625 -40.328125 C 32.707031 -40.085938 33.1875 -39.90625 33.5 -39.78125 C 33.820312 -39.664062 34.363281 -39.488281 35.125 -39.25 C 35.882812 -39.007812 36.460938 -38.851562 36.859375 -38.78125 C 39.328125 -38.0625 41.476562 -37.257812 43.3125 -36.375 C 45.15625 -35.5 47.09375 -34.300781 49.125 -32.78125 C 51.15625 -31.269531 52.726562 -29.359375 53.84375 -27.046875 C 54.96875 -24.734375 55.53125 -22.097656 55.53125 -19.140625 C 55.53125 -5.179688 45.835938 1.796875 26.453125 1.796875 C 22.054688 1.796875 17.882812 1.117188 13.9375 -0.234375 C 9.988281 -1.597656 7.140625 -2.957031 5.390625 -4.3125 L 2.75 -6.46875 L 11.375 -20.9375 C 12.007812 -20.382812 12.84375 -19.726562 13.875 -18.96875 C 14.914062 -18.207031 16.789062 -17.164062 19.5 -15.84375 C 22.21875 -14.53125 24.570312 -13.875 26.5625 -13.875 C 30.957031 -13.875 33.15625 -15.351562 33.15625 -18.3125 C 33.15625 -19.664062 32.59375 -20.722656 31.46875 -21.484375 C 30.351562 -22.242188 28.457031 -23.097656 25.78125 -24.046875 C 23.113281 -25.003906 21.019531 -25.882812 19.5 -26.6875 C 15.675781 -28.675781 12.644531 -30.925781 10.40625 -33.4375 C 8.175781 -35.957031 7.0625 -39.289062 7.0625 -43.4375 C 7.0625 -49.664062 9.472656 -54.515625 14.296875 -57.984375 C 19.128906 -61.453125 25.648438 -63.1875 33.859375 -63.1875 Z M 33.859375 -63.1875 "/></g></g></g><g fill="#000000" fill-opacity="1"><g transform="translate(169.893514, 311.184027)"><g><path d="M 7.1875 0 L 7.1875 -102.921875 L 28.359375 -102.921875 L 28.359375 -54.921875 L 28.609375 -54.921875 C 34.109375 -60.429688 39.96875 -63.1875 46.1875 -63.1875 C 49.21875 -63.1875 52.226562 -62.785156 55.21875 -61.984375 C 58.21875 -61.191406 61.09375 -59.957031 63.84375 -58.28125 C 66.59375 -56.601562 68.828125 -54.226562 70.546875 -51.15625 C 72.265625 -48.082031 73.125 -44.515625 73.125 -40.453125 L 73.125 0 L 51.9375 0 L 51.9375 -34.703125 C 51.9375 -37.890625 50.914062 -40.679688 48.875 -43.078125 C 46.84375 -45.472656 44.191406 -46.671875 40.921875 -46.671875 C 37.734375 -46.671875 34.84375 -45.429688 32.25 -42.953125 C 29.65625 -40.484375 28.359375 -37.734375 28.359375 -34.703125 L 28.359375 0 Z M 7.1875 0 "/></g></g></g><g fill="#000000" fill-opacity="1"><g transform="translate(243.01117, 311.184027)"><g><path d="M 53.734375 -61.390625 L 78.140625 -61.390625 L 29.921875 31.109375 L 5.5 31.109375 L 26.6875 -9.578125 L -2.390625 -61.390625 L 22.015625 -61.390625 L 39.125 -29.921875 Z M 53.734375 -61.390625 "/></g></g></g><g fill="#000000" fill-opacity="1"><g transform="translate(312.778117, 311.184027)"><g><path d="M 20.828125 -25.609375 C 24.648438 -25.609375 27.894531 -24.269531 30.5625 -21.59375 C 33.238281 -18.925781 34.578125 -15.675781 34.578125 -11.84375 C 34.578125 -8.09375 33.238281 -4.878906 30.5625 -2.203125 C 27.894531 0.460938 24.648438 1.796875 20.828125 1.796875 C 17.078125 1.796875 13.863281 0.460938 11.1875 -2.203125 C 8.519531 -4.878906 7.1875 -8.09375 7.1875 -11.84375 C 7.1875 -15.675781 8.519531 -18.925781 11.1875 -21.59375 C 13.863281 -24.269531 17.078125 -25.609375 20.828125 -25.609375 Z M 20.828125 -25.609375 "/></g></g></g></svg>
